:SAMPLES-PER-SECOND 30
:FULLY-SPECIFIED
:DEGREES
375
root  -11.5052 34.4637 -16.3876 -171.727 -5.56178 179.77
RightUpLeg  -11.1316 -16.199 1.4586
RightLeg  10.9237 -4.85849 -0.614946
RightFoot  0.36757 0.00949639 0.0834803
RightToes  -20.8607 -0.0912546 -0.18149
Spine  -2.21635 -0.265672 1.0292
Spine1  -4.50172 -0.734538 2.65183
HEad  -71.1601 -0.89567 1.27371
LeftShoulder1  -1.94126e-019 -3.10601e-018 -2.51263e-017
LeftArm  -13.7466 24.7449 -82.8256
LeftForeArm  27.6379 -18.3576 -3.0259
LeftHand  -0.360839 -0.0599992 7.75381
RightShoulder  -4.96962e-017 0 -2.36833e-017
RightArm  -33.4463 -27.6769 75.9918
RightForeArm  53.2972 8.10635 1.38337
RightHand  -0.124676 -2.03792 -4.00338
LeftUpLeg  -13.9515 -2.79064 3.3829
LeftLeg  16.1337 13.1961 2.88349
LeftFoot  2.1789 -0.00794653 0.579424
LeftToes  -20.7836 1.48347e-006 1.01831e-007
376
root  -11.7708 34.5089 -16.4035 -171.47 -6.46756 179.428
RightUpLeg  -11.1531 -16.5598 0.788816
RightLeg  10.833 -5.49065 -0.685935
RightFoot  0.581059 0.0108228 0.0643304
RightToes  -20.8912 -0.092324 -0.183949
Spine  -2.42001 -0.99048 1.06091
Spine1  -4.90109 -2.21629 2.78892
HEad  -70.5882 0.689475 0.48429
LeftShoulder1  -1.94126e-019 -3.10601e-018 -2.51263e-017
LeftArm  -12.0356 26.117 -82.6502
LeftForeArm  26.4309 -17.9331 -2.97534
LeftHand  -0.352818 -0.0534967 7.59049
RightShoulder  -4.96962e-017 0 -2.36833e-017
RightArm  -30.535 -30.1062 76.0969
RightForeArm  48.2087 10.5061 1.57472
RightHand  -0.0804961 -2.01095 -2.43134
LeftUpLeg  -13.0581 -2.22374 2.64043
LeftLeg  13.58 11.8955 2.05805
LeftFoot  3.20429 -0.0163841 0.747321
LeftToes  -20.9847 1.48347e-006 1.01831e-007
377
root  -12.0138 34.5072 -16.4232 -171.462 -6.06288 179.35
RightUpLeg  -11.2004 -16.7729 0.297607
RightLeg  10.9505 -4.91486 -0.624399
RightFoot  0.784587 0.0119254 0.0484184
RightToes  -21.6396 -0.093653 -0.189873
Spine  -2.48075 -1.10378 1.11465
Spine1  -5.02185 -2.46792 2.91644
HEad  -69.1947 1.61642 0.316188
LeftShoulder1  -1.94126e-019 -3.10601e-018 -2.51263e-017
LeftArm  -9.51596 26.2351 -82.6813
LeftForeArm  28.912 -15.9551 -2.67644
LeftHand  -0.332214 -0.291097 6.87109
RightShoulder  -4.96962e-017 0 -2.36833e-017
RightArm  -30.4221 -31.3855 75.9414
RightForeArm  45.2802 11.7168 1.58421
RightHand  -0.0973201 -2.60509 -3.54959
LeftUpLeg  -12.188 -2.33396 2.18461
LeftLeg  12.1125 12.3695 1.81684
LeftFoot  3.54696 -0.0229443 0.849283
LeftToes  -21.29 1.48347e-006 1.01831e-007
378
root  -12.1997 34.4813 -16.4645 -171.622 -5.09204 179.414
RightUpLeg  -11.1753 -16.642 -0.0319551
RightLeg  11.1303 -4.11566 -0.536136
RightFoot  0.969434 0.0124187 0.0412416
RightToes  -22.4078 -0.0952838 -0.195894
Spine  -2.46071 -0.942666 1.16726
Spine1  -4.98703 -2.15948 3.01494
HEad  -68.1459 2.26503 0.767853
LeftShoulder1  -1.94126e-019 -3.10601e-018 -2.51263e-017
LeftArm  -8.80236 25.6623 -83.0146
LeftForeArm  33.5645 -12.9051 -2.2088
LeftHand  -0.350382 -1.29458 6.23641
RightShoulder  -4.96962e-017 0 -2.36833e-017
RightArm  -32.4928 -31.4819 75.7385
RightForeArm  44.6616 11.6902 1.59038
RightHand  -0.103576 -3.45094 -5.28698
LeftUpLeg  -11.3046 -2.3559 1.90309
LeftLeg  11.2289 13.302 1.74449
LeftFoot  3.48232 -0.0257991 0.893654
LeftToes  -20.9258 1.48347e-006 1.01831e-007
379
root  -12.3422 34.4567 -16.5243 -171.815 -3.87978 179.517
RightUpLeg  -11.0816 -16.1775 -0.269694
RightLeg  11.21 -3.40903 -0.44894
RightFoot  1.1736 0.0126151 0.0383209
RightToes  -22.887 -0.0981304 -0.199619
Spine  -2.42194 -0.681583 1.16151
Spine1  -4.91299 -1.62592 2.98279
HEad  -67.361 2.90875 1.55821
LeftShoulder1  -1.94126e-019 -3.10601e-018 -2.51263e-017
LeftArm  -10.527 25.2755 -83.3989
LeftForeArm  36.1956 -10.5182 -1.82946
LeftHand  -0.387819 -1.53152 6.67114
RightShoulder  -4.96962e-017 0 -2.36833e-017
RightArm  -35.9859 -30.6704 75.6136
RightForeArm  46.5016 10.7957 1.58538
RightHand  -0.0985253 -3.92248 -6.47601
LeftUpLeg  -10.5313 -1.72335 1.67421
LeftLeg  10.6778 13.8962 1.68661
LeftFoot  3.30054 -0.02547 0.888539
LeftToes  -20.4137 1.48347e-006 1.01831e-007
